<?xml version="1.0" encoding="UTF-8"?>
<svg id="Layer_1" data-name="Layer 1" xmlns="http://www.w3.org/2000/svg" viewBox="0 0 512 512">
  <defs>
    <style>
      .cls-1 {
        fill: none;
      }

      .cls-2 {
        fill: #c82027;
      }
    </style>
  </defs>
  <path class="cls-2" d="M385.15,514.12h-50.03c0-11.79-.49-23.25-1.44-34.48-.5-5.76-1.12-11.48-1.91-17.12,0-.14-.03-.3-.05-.44-.1-.88-.22-1.76-.35-2.62-.92-6.81-2.04-13.38-3.3-19.74-1.78-9.02-3.88-17.6-6.2-25.72-2.28-8.06-4.8-15.66-7.46-22.83-.2-.6-.44-1.2-.66-1.81-1.46-3.99-2.99-7.98-4.61-11.96-.45-1.11-.91-2.22-1.4-3.34-2.36-5.43-5.05-10.84-8.04-16.25-.07-.12-.13-.24-.18-.36-2.02-3.89-4.04-7.53-6.03-10.97-14.8-25.56-28.14-38.96-29.06-39.87-.04-.04-.05-.06-.05-.06-4.35-5.5-8.84-10.96-13.42-16.45h0c-9.36-11.27-19.02-22.52-28.5-33.79h0c-3.4-4.05-6.78-8.09-10.12-12.13-.35-.43-.71-.87-1.02-1.26-.2-.24-.38-.46-.55-.68-.17-.22-.34-.42-.51-.61-10.83-13.24-21.1-26.5-30.05-39.79-8.92-13.28-16.51-26.58-21.99-39.95-.04-.09-.08-.2-.12-.28-3.52-8.65-6.71-17.09-9.58-25.43-4.67-13.53-8.51-26.76-11.6-39.92-2.16-9.17-3.95-18.33-5.38-27.58-2.05-13.06-3.43-26.29-4.17-39.93-.49-8.7-.72-17.55-.72-26.64h50.05c-.16,9.2-.03,18.08.34,26.64.61,14.22,1.93,27.52,3.75,39.93,1.41,9.73,3.16,18.92,5.13,27.58,3.41,14.87,7.5,28.16,11.9,39.92,3.58,9.58,7.36,18.14,11.11,25.71,9.98,20.15,19.82,33.31,25.37,39.95,2.69,3.21,4.39,4.91,4.62,5.13,0,0,.02.02.03.03h0c2.28,3,4.62,5.99,7,8.98l5.03,6.25c.17.21.34.42.52.63l.22.27c8.97,11.06,18.39,22.11,27.75,33.17h0c1.86,2.19,3.7,4.35,5.54,6.54l.11.13c12.27,14.52,24.31,29.03,35.08,43.59,9.83,13.28,18.61,26.58,25.54,39.93,2.56,4.94,4.87,9.89,6.89,14.85,1.76,4.33,3.47,8.55,5.12,12.72,5.36,13.62,10.11,26.59,14.08,39.93,2.48,8.34,4.65,16.83,6.48,25.72,2.55,12.32,4.45,25.39,5.59,39.93.84,10.63,1.27,22.04,1.27,34.48Z"/>
  <path class="cls-2" d="M235.05,201.85c1.27,1.7,2.56,3.42,3.86,5.13-.23-.22-1.93-1.92-4.62-5.13-5.55-6.64-15.39-19.8-25.37-39.95-3.75-7.57-7.53-16.13-11.11-25.71-4.4-11.76-8.49-25.05-11.9-39.92-1.97-8.66-3.72-17.84-5.13-27.58-1.82-12.41-3.14-25.71-3.75-39.93-.37-8.56-.5-17.43-.34-26.64,0,9.01.15,17.88.54,26.64.59,13.46,1.7,26.7,3.6,39.93,1.31,9.17,2.99,18.34,5.11,27.58,3.02,13.1,6.95,26.34,12,39.92,1.2,3.19,2.45,6.41,3.77,9.65,2.19,5.36,4.71,10.71,7.54,16.06,7.04,13.35,15.9,26.65,25.8,39.95Z"/>
  <path class="cls-2" d="M293.48,346.49c1.99,3.43,4.01,7.08,6.03,10.97-2.02-3.66-4.18-7.32-6.44-10.97-8.2-13.18-17.89-26.32-28.33-39.45,0,0-.03-.05-.11-.15-.03-.04-.07-.08-.09-.12-.04-.05-.08-.1-.12-.15.92.91,14.26,14.31,29.06,39.87Z"/>
  <path class="cls-2" d="M331.37,459.46c-.95-6.65-2.06-13.23-3.37-19.74-1.76-8.67-3.83-17.23-6.25-25.72-2.17-7.68-4.61-15.27-7.35-22.83,2.67,7.17,5.18,14.77,7.46,22.83,2.33,8.12,4.42,16.69,6.2,25.72,1.26,6.37,2.38,12.94,3.3,19.74Z"/>
  <path class="cls-2" d="M279.45,256.32h0c-9.36-11.06-18.77-22.11-27.75-33.17l27.79,33.13s-.03.03-.04.04Z"/>
  <path class="cls-2" d="M375.25,2.12c0,9.09-.24,17.94-.72,26.64-.75,13.64-2.11,26.87-4.17,39.93h0c-1.43,9.25-3.22,18.41-5.39,27.58-.38,1.64-.78,3.3-1.18,4.94-.56,2.25-1.14,4.51-1.75,6.77-.12.45-.24.89-.37,1.34-.32,1.19-.66,2.39-.99,3.6-2.16,7.69-4.59,15.43-7.3,23.28h0c-2.87,8.34-6.07,16.79-9.58,25.43-.04.09-.08.19-.12.28-5.47,13.37-13.08,26.67-21.99,39.95-9.12,13.57-19.62,27.09-30.69,40.59l-28.63-34.63c-5.7-6.89-20.5-26-30.3-45.9h60.61c2.8-5.35,5.34-10.69,7.52-16.06,1.31-3.24,2.57-6.45,3.75-9.64h0s-82.92,0-82.92,0c-4.37-11.78-8.44-25.06-11.81-39.92h106.74c2.14-9.23,3.82-18.4,5.13-27.57h0s-116.96,0-116.96,0c-1.81-12.42-3.08-25.73-3.69-39.93h124.24c.37-8.77.54-17.62.54-26.64h50.03Z"/>
  <path class="cls-2" d="M180.82,68.69h-.04c-1.82-12.41-3.14-25.71-3.75-39.93h.2c.59,13.46,1.7,26.7,3.6,39.93Z"/>
  <path class="cls-2" d="M197.94,136.19h-.13c-4.4-11.76-8.49-25.05-11.9-39.92h.03c3.02,13.1,6.95,26.34,12,39.92Z"/>
  <path class="cls-2" d="M364.98,96.27c-.38,1.64-.78,3.29-1.19,4.94.4-1.64.8-3.3,1.18-4.94h0Z"/>
  <path class="cls-2" d="M235.05,201.85h-.76c-5.55-6.64-15.39-19.8-25.37-39.95h.32c7.04,13.35,15.9,26.65,25.8,39.95Z"/>
  <path class="cls-2" d="M310.22,479.64h-142.01c-.95,11.23-1.44,22.7-1.44,34.48h-50.03c0-21.46,1.3-39.84,3.71-56.48.89-6.2,1.96-12.15,3.15-17.92,1.83-8.9,4.01-17.38,6.49-25.73.83-2.77,1.68-5.53,2.57-8.27.18-.56.36-1.12.55-1.68,3.26-9.92,6.93-19.77,10.96-29.98,1.64-4.18,3.34-8.39,5.1-12.72,2.02-4.95,4.33-9.9,6.9-14.84h0s0,0,0,0c.43-.84.86-1.66,1.3-2.5h0c1.35-2.51,2.74-5,4.21-7.5,0,0,0,0,0,0,1.47-2.5,2.98-4.98,4.55-7.48,4.71-7.5,9.91-14.97,15.44-22.45h0c8.92-12.04,18.7-24.05,28.74-36.06l28.5,34.32c4.51,4.48,18.61,19.43,31.69,41.68h-61.76s0,0,0,0c-5.71,9.17-10.68,18.36-14.67,27.57h90.53c5.21,11.77,10.13,25.07,14.26,39.93h-118.83c-2.41,8.49-4.48,17.05-6.24,25.72h131.11c2.39,12.42,4.19,25.74,5.22,39.93Z"/>
  <path class="cls-2" d="M156.17,346.49c.43-.84.87-1.66,1.31-2.5-.44.84-.88,1.66-1.3,2.5h0Z"/>
  <path class="cls-2" d="M157.48,343.98c1.34-2.5,2.74-5,4.21-7.49-1.47,2.5-2.86,4.99-4.21,7.49Z"/>
  <path class="cls-2" d="M166.24,329c-1.57,2.5-3.08,4.98-4.55,7.48,1.46-2.5,2.97-4.99,4.55-7.48Z"/>
  <path class="cls-2" d="M293.48,346.49h-.41c-8.2-13.18-17.89-26.32-28.33-39.45,0,0-.03-.05-.11-.15-.03-.04-.07-.08-.09-.12-.04-.05-.08-.1-.12-.15.92.91,14.26,14.31,29.06,39.87Z"/>
  <path class="cls-2" d="M309.13,377.4c1.62,3.98,3.15,7.97,4.61,11.96-2.02-5.35-4.12-10.46-6.25-15.3h.25c.49,1.12.95,2.23,1.4,3.34Z"/>
  <path class="cls-2" d="M321.87,414h-.12c-2.17-7.68-4.61-15.27-7.35-22.83,2.67,7.17,5.18,14.77,7.46,22.83Z"/>
  <path class="cls-2" d="M328.07,439.71c1.26,6.37,2.38,12.94,3.3,19.74-.95-6.65-2.06-13.23-3.37-19.74h.08Z"/>
  <path class="cls-2" d="M333.68,479.64h-.14c-.45-5.85-1.04-11.55-1.76-17.12.79,5.64,1.41,11.36,1.91,17.12Z"/>
  <path class="cls-1" d="M238.91,206.98c-.23-.22-1.93-1.92-4.62-5.13-5.55-6.64-15.39-19.8-25.37-39.95-3.75-7.57-7.53-16.13-11.11-25.71-4.4-11.76-8.49-25.05-11.9-39.92-1.97-8.66-3.72-17.84-5.13-27.58-1.82-12.41-3.14-25.71-3.75-39.93-.37-8.56-.5-17.43-.34-26.64,0,9.01.15,17.88.54,26.64.59,13.46,1.7,26.7,3.6,39.93,1.31,9.17,2.99,18.34,5.11,27.58,3.02,13.1,6.95,26.34,12,39.92,1.2,3.19,2.45,6.41,3.77,9.65,2.19,5.36,4.71,10.71,7.54,16.06,7.04,13.35,15.9,26.65,25.8,39.95,1.27,1.7,2.56,3.42,3.86,5.13Z"/>
  <path class="cls-1" d="M299.51,357.46c-2.02-3.66-4.18-7.32-6.44-10.97-8.2-13.18-17.89-26.32-28.33-39.45,0,0-.03-.05-.11-.15-.03-.04-.07-.08-.09-.12-.04-.05-.08-.1-.12-.15.92.91,14.26,14.31,29.06,39.87,1.99,3.43,4.01,7.08,6.03,10.97Z"/>
  <path class="cls-1" d="M331.37,459.46c-.95-6.65-2.06-13.23-3.37-19.74-1.76-8.67-3.83-17.23-6.25-25.72-2.17-7.68-4.61-15.27-7.35-22.83,2.67,7.17,5.18,14.77,7.46,22.83,2.33,8.12,4.42,16.69,6.2,25.72,1.26,6.37,2.38,12.94,3.3,19.74Z"/>
</svg>